<svg xmlns="http://www.w3.org/2000/svg" xmlns:xlink="http://www.w3.org/1999/xlink" viewBox="0 0 876.02 762.39"><defs><style>.a,.al{fill:none;}.b{clip-path:url(#a);}.c{opacity:0.1;}.d{fill:url(#b);}.e{fill:url(#c);}.f{opacity:0.17;}.g{fill:url(#d);}.h{fill:url(#e);}.i,.n{fill:#6c63ff;}.i,.l,.q,.s,.t{opacity:0.1;}.ae,.i,.l,.s,.t{isolation:isolate;}.j{fill:url(#f);}.k,.s,.t{fill:#fff;}.m{fill:#cf6f80;}.o{fill:#3f3d56;}.p{fill:#512e4e;}.r{opacity:0.14;fill:url(#g);}.s{stroke:#000;stroke-width:0.5px;}.al,.s{stroke-miterlimit:10;}.u{fill:#6c68fd;}.v{fill:url(#h);}.w{fill:#e2e2ec;}.x{fill:#f7f7fd;}.y{fill:#fc6681;}.z{fill:#ffd037;}.aa{fill:url(#i);}.ab{fill:#db8b8b;}.ac{fill:#2e3037;}.ad{fill:#474463;}.ae{opacity:0.05;}.af{fill:#472727;}.ag{opacity:0.19;}.ah{fill:#f8f8ff;}.ai{fill:#bac5f4;}.aj{fill:#e1e6fb;}.ak{fill:#f2f2f2;}.al{stroke:#3f3d56;stroke-width:2px;}.am{fill:#4285f4;}</style><clipPath id="a" transform="translate(-540.54 50)"><rect class="a" x="491" y="-1" width="875" height="770"/></clipPath><linearGradient id="b" x1="287.55" y1="413.15" x2="879.83" y2="-115.74" gradientUnits="userSpaceOnUse"><stop offset="0" stop-color="#cce0f4"/><stop offset="0" stop-color="#c8d7f5"/><stop offset="0.01" stop-color="#bdbdf7"/><stop offset="0.01" stop-color="#ab94fb"/><stop offset="0.01" stop-color="#9e76fe"/><stop offset="0.87" stop-color="#9471d6"/><stop offset="0.99" stop-color="#9471d6"/></linearGradient><linearGradient id="c" x1="551.56" y1="708.79" x2="1143.83" y2="179.9" xlink:href="#b"/><linearGradient id="d" x1="599.56" y1="718.79" x2="1191.83" y2="189.9" xlink:href="#b"/><linearGradient id="e" x1="647.12" y1="720.46" x2="1239.4" y2="191.57" xlink:href="#b"/><linearGradient id="f" x1="830.03" y1="180.48" x2="830.03" y2="479.62" gradientTransform="matrix(1, 0, 0, -1, -15.95, 751.44)" gradientUnits="userSpaceOnUse"><stop offset="0" stop-color="gray" stop-opacity="0.25"/><stop offset="0.54" stop-color="gray" stop-opacity="0.12"/><stop offset="1" stop-color="gray" stop-opacity="0.1"/></linearGradient><linearGradient id="g" x1="835.34" y1="322.41" x2="866.56" y2="294.53" xlink:href="#b"/><linearGradient id="h" x1="2.49" y1="768.2" x2="2.49" y2="768.76" gradientTransform="matrix(570.61, 0, 0, -662.53, -917.08, 509569.79)" xlink:href="#f"/><linearGradient id="i" x1="2763.78" y1="318.75" x2="2763.78" y2="660.06" gradientTransform="translate(428238 470675.93) rotate(180) scale(154.5 611.87)" xlink:href="#f"/></defs><title>teste</title><g class="b"><g class="c"><path class="d" d="M821.64-27.06l-87.3,4.52C763.53-21.73,793.32-20.31,821.64-27.06Z" transform="translate(-540.54 50)"/><path class="e" d="M1343.62,514l-79-564L838.39-27.93c1.27,2.54.65,6.22-2.85,7.36-38.93,12.68-81.13,7.74-121.33,7.68-4.75,0-6-5.45-3.73-8.3l-11.36.69,1.5,4.5c60,85-178,219-159,350s183.16,399.7,503,353C1496.62,621,1343.62,514,1343.62,514Z" transform="translate(-540.54 50)"/></g><g class="f"><path class="g" d="M1391.62,524l-79-564L802.18-13.57a293.57,293.57,0,0,1-32.13,1.67l-22.93,1.4,1.5,4.5c60,85-178,219-159,350s183.16,399.7,503,353C1544.62,631,1391.62,524,1391.62,524Z" transform="translate(-540.54 50)"/></g><path class="h" d="M1370.64,535.82a4.67,4.67,0,0,1-1.14-3.19c0-12.75-.08-25.5-.82-38.23s-2-25.39-2.06-38.15a4.56,4.56,0,0,1,1.76-3.79c-.13-1.62-.29-3.25-.46-4.86-1.19-11.16-2.47-22.66-.62-33.8a4.59,4.59,0,0,1,1-2.24c-.38-4-.76-8.05-.8-12.1-.1-7.64-1-15-1.5-22.58-.54-8,.09-16.09.14-24.13a4.58,4.58,0,0,1,2-3.94c-.11-3.75.1-7.5.25-11.25a4.56,4.56,0,0,1-1.52-3.56q0-24.09.52-48.14c.17-8.06.32-16.12.15-24.17-.12-5.87-1.41-12.92,0-18.64a5.17,5.17,0,0,1,.48-1.24c0-.15,0-.29,0-.43-.07-12.51-.44-25-.49-37.51,0-5.72-.59-11.37-.43-17.08.08-3.09-.16-6.16.72-9a4.85,4.85,0,0,1-.75-3.95c2.5-11.31-.4-23.44.67-34.92,0-.12,0-.24,0-.36a46.3,46.3,0,0,1-.16-9.27c-.23-2.52-.52-5-.73-7.61-.45-5.53.8-11.22,0-16.69a5.22,5.22,0,0,1,.53-3.28c-.15-2.12-.32-4.24-.44-6.39-.31-5.29.18-10.61.23-15.9a5.25,5.25,0,0,1,.45-2.11c-.06-1.32-.15-2.63-.28-3.93-.25-2.38-.36-4.77-.4-7.17a5.37,5.37,0,0,1-.77-2.67,4.92,4.92,0,0,1,.41-1.87,5,5,0,0,1-.16-1.25,12.31,12.31,0,0,1,.25-2.19,5.68,5.68,0,0,1,.18-2.46,4.5,4.5,0,0,1,0-3.86c0-.6,0-1.21,0-1.82a5.86,5.86,0,0,1,0-1.62v-1c0-3.83,1.58-10,.08-13.57a5.19,5.19,0,0,1,.14-4.49,5.66,5.66,0,0,1-.49-2.08,3.78,3.78,0,0,1,.1-1.06c-.49-4-.85-8.2.09-12q-.32-2.91-.66-5.82c-.38-3.14-.47-6.41.69-9.14-.24-1.19-.5-2.35-.77-3.5-5.92.6-11.9,1.31-17.75,1-5.44-.29-13.38-4-9.25-10.63a11.7,11.7,0,0,1,4.32-3.87l-1.11,0c-5.57.13-6.9-8.76-1.32-9.82,2.7-.51,5.42-1,8.14-1.44,0,0,0-.07,0-.11L825.55-1.93,802.12-.5l1.5,4.5c60,85-178,219-159,350s183.16,399.7,503,353c101.83-14.87,172.9-31.82,222-49.16-.09-27.88-.29-55.76.08-83.63C1369.85,561.41,1370.14,548.61,1370.64,535.82Z" transform="translate(-540.54 50)"/><rect class="i" x="261.85" y="373.35" width="13.83" height="13.83"/><rect class="i" x="261.85" y="407.46" width="13.83" height="13.83"/><rect class="i" x="261.85" y="441.56" width="13.83" height="13.83"/><rect class="i" x="261.85" y="475.66" width="13.83" height="13.83"/><rect class="i" x="261.85" y="509.77" width="13.83" height="13.83"/><polygon class="i" points="261.85 552.78 261.85 543.87 275.67 543.87 275.67 551.51 261.85 552.78"/><ellipse class="i" cx="281.8" cy="614.31" rx="47.37" ry="7.61"/><path class="j" d="M865.23,378.8s-1.91-.27-1.91-3.05a43.6,43.6,0,0,0-1.38-8h0s-1.18-9.07-2.82-10.51-3.74-9.89-3.74-9.89-.36-4.58-1.1-5.57a49.13,49.13,0,0,1-3.19-6.85c-1.46-3.45-7.55-5.81-7.55-5.81s-11-6.4-14.15-8.49h0a4.29,4.29,0,0,1-.8-.6c-.55-.71-2.92-.72-2.92-.72a48.08,48.08,0,0,1-.56-5v-.53a16.8,16.8,0,0,0,7.39-9.14c.06-.19.11-.38.16-.57a1.59,1.59,0,0,0,1-.85,15.85,15.85,0,0,1,.63-1.95,7.17,7.17,0,0,1,1.8-1.57c1.55-1.32,1.95-3.53,1.87-5.54-.05-1.64-.31-3.28-.21-4.9a1.93,1.93,0,0,1,0-.41c0-.23.07-.48.11-.72.24-1.2.76-2.34,1-3.53a4.58,4.58,0,0,0-.36-3.58c-1-1.51-3.07-1.81-4.9-1.94-2.06-.18-3.88.05-5.23-1.67a18.61,18.61,0,0,0-2.08-2.51c-.27-.25-2.92-1.87-2.92-2a11.78,11.78,0,0,0-8.26-.64c-1.38.4-2.67,1.05-4.06,1.38-3,.71-6.45-.06-9,1.65a10.74,10.74,0,0,0-3.07,4c-.64,1.24-1.3,2.48-2,3.72a23.93,23.93,0,0,0-2.62,6.36,12.53,12.53,0,0,0-.18,1.5h0v.77a2.53,2.53,0,0,0,0,.48c0,.16,0,.2,0,.31a4.34,4.34,0,0,1,.08.48c0,.16.08.43.14.64a1,1,0,0,0,.09.28l.17.48c.06.16.07.17.11.26a3.62,3.62,0,0,0,.25.48,1.74,1.74,0,0,0,.1.19,5,5,0,0,0,.45.65c1,1.3,2.57,2.13,3.7,3.34v.55a16.64,16.64,0,0,0,7.63,13.56c0,.19,0,.38,0,.56a27.21,27.21,0,0,1-.05,4.33,2.08,2.08,0,0,0-1.62-.72,2.18,2.18,0,0,0-.62.06l0,0h0v.05c-1.07.26-2.39,1.37-3.65,4.54,0,0-3.83,4.31-6.75,4.13s-10.3,4.5-10.3,4.5-7.2,4.67-8.75,9.44a64.58,64.58,0,0,1-3.11,7.91l-8.93,18.34h0l-1.64,14.58s.91,6.48.73,7.47,3.74,9.89,3.74,9.89,12.95,22.74,18.24,23.91l.38-.27a3.06,3.06,0,0,0,.71.27l1.09-.77a10.94,10.94,0,0,1-.09,2.56c-.72,2.26.28,16.91,1.55,19.78s.83,40.55.83,40.55l-.18,3.32a1.48,1.48,0,0,0,0,.29l0,.79.13.07a9.64,9.64,0,0,1-.13,3.17,35.12,35.12,0,0,0-.65,5.58s-3.64,23.27-1.91,27.95,3.19,9.8,3.19,9.8,1.83,5.84.09,6.81-6.65,2.7-5.65,5.12c.93,2.25,4.43,8.27,4.95,9.15l0,.48-.72,7.75a10,10,0,0,0,.82,3,5.08,5.08,0,0,0,5.2,3.25c.49,0,1.05-.09,1.6-.16a68.43,68.43,0,0,0,11.8-3.08,4.71,4.71,0,0,1-.91-.76h0a2.68,2.68,0,0,1-.82-1.94c.08-1.42-2.56-8.13-3.22-9.79l-.15-.37s6-6.3,5-11.87c0,0-6.66-3.89-4.47-6s6.11-8.26,6.11-8.26.18-22.92,0-26.34a28.31,28.31,0,0,1,.34-7.12c.07-.35.16-.69.25-1a62.49,62.49,0,0,0,9.17.7c1.12,0,2.25,0,3.4-.07,0,.32,0,.67,0,1.05.26,5.68.73,15.64,1.11,19.34.55,5.3,3.56,19.59,3.56,19.59s-5.74,3.69,1,12.77c0,0,0,3.29-.45,3.77h0a40.57,40.57,0,0,0-1.15,4.75c-.28,1.71-.4,3.44.06,4.34,1.09,2.14,7.65,2,7.65,2h0l.16,0a9.31,9.31,0,0,1,7,2.09c2.5,2,12,1.12,17.09.48,2-.26,3.35-.48,3.35-.48a2.08,2.08,0,0,0,.06-.7h0c-.05-1.26-1-4-7.73-6.49,0,0-6.29-4.23-6.2-7.91h-.87l.78,0s-2.46-9-1.46-9.72-2-10.7-2-10.7-1.73-16.72-1.83-17.89a10.27,10.27,0,0,1,.46-3l-.46-9.18s-.08-3.05,0-4a18.42,18.42,0,0,0-.2-2.57c0-.34-.09-.7-.14-1,2.36-.59,3.89-1.14,3.89-1.14l-.27-31.92c2-3.89,2.37-12.43,2.36-18.47,0-3.89-.17-6.77-.17-6.77l2.73-4.47s.64-5.35-.36-6.52a1.11,1.11,0,0,1,.12-1.53,5,5,0,0,1,.6-.43l-.06-.1a5.24,5.24,0,0,1,.61-.44s-1-1.5-.1-2.14c.81.55,1.54,1,2.1,1.31,0,.36-.08.56-.08.56l.23-.49.86.49s4.29-8.54,4.2-9.8,2.92-6.56,2.92-6.56.36-2.79,2-4,1.28-9.62,1.28-9.62.45-4.4,1.55-6.2S865.23,378.8,865.23,378.8Zm-82-3.75.08,2-.84-1.34Z" transform="translate(-540.54 50)"/><path class="k" d="M854.52,415.48l-1,4.47s-8.41-4.3-9.93-9.75,2.54-7.52,2.54-7.52l7.84,3.32Z" transform="translate(-540.54 50)"/><path class="l" d="M854.52,415.48l-1,4.47s-8.41-4.3-9.93-9.75,2.54-7.52,2.54-7.52l7.84,3.32Z" transform="translate(-540.54 50)"/><path class="k" d="M807.31,567.7s-7.77,2.86-13.12,3.22a5,5,0,0,1-5.1-3.23,9.92,9.92,0,0,1-.81-2.92l.71-7.7.37-4.1,11.36-3,1.61,4.93.15.37c.64,1.64,3.23,8.32,3.16,9.72a2.62,2.62,0,0,0,.79,1.94A4.38,4.38,0,0,0,807.31,567.7Z" transform="translate(-540.54 50)"/><path class="k" d="M860.42,563.78a1.84,1.84,0,0,1-.07.7s-16.63,2.77-20,0a9,9,0,0,0-7-2.06s-6.43.18-7.51-1.94c-.44-.89-.33-2.62-.05-4.31a40.17,40.17,0,0,1,1.13-4.73l.25-.2,1.54-1.23,17.93-.53h.13c-.09,3.66,6.08,7.87,6.08,7.87C859.4,559.78,860.37,562.53,860.42,563.78Z" transform="translate(-540.54 50)"/><path class="l" d="M860.43,563.78a1.84,1.84,0,0,1-.08.7s-16.63,2.77-20,0a9,9,0,0,0-7-2.06s-6.44.18-7.51-1.94c-.44-.89-.33-2.62-.06-4.32,2.48.25,6.4.87,7.93,2.35,2.33,2.23,6.27,4.47,8.68,4.65C844.27,563.27,855.61,563.63,860.43,563.78Z" transform="translate(-540.54 50)"/><path class="l" d="M807.31,567.7s-7.77,2.86-13.12,3.22a5,5,0,0,1-5.1-3.23c2,.66,4.73,1.36,6.17.72,1.71-.76,7.78-1.25,11.18-1.46A4.43,4.43,0,0,0,807.31,567.7Z" transform="translate(-540.54 50)"/><path class="m" d="M818.86,337.31c-6.42-2.49-14.68-10.73-12.62-14.58a8.84,8.84,0,0,0,.81-3.1,29,29,0,0,0,.06-4.37,60.7,60.7,0,0,0-.87-7.12s20,.45,18.87,3.4a10.9,10.9,0,0,0-.3,4c.1,1.68.34,3.59.59,5.2.34,2.2.7,3.88.7,3.88s-1.23,1.72-1.94,1.81S828.06,340.88,818.86,337.31Z" transform="translate(-540.54 50)"/><path class="l" d="M802.46,555.28l-.15.17c-6-7.25-13.24,1.79-13.24,1.79l-.1-.2.37-4.1,11.36-3,1.61,4.92Z" transform="translate(-540.54 50)"/><path class="l" d="M846.76,550s-4.37-.09-6.71,2-13.61.44-13.12,0a1.76,1.76,0,0,0,.25-.74l1.53-1.23,17.93-.53C846.71,549.8,846.76,550,846.76,550Z" transform="translate(-540.54 50)"/><path class="n" d="M809.91,493.1a14.37,14.37,0,0,0-.74,2.5,28.38,28.38,0,0,0-.33,7.07c.18,3.41,0,26.21,0,26.21s-3.85,6.09-6,8.23,4.38,6,4.38,6c1,5.55-4.92,11.81-4.92,11.81-6-7.24-13.24,1.79-13.24,1.79s-3.93-6.81-4.92-9.24,3.85-4.11,5.55-5.1-.09-6.81-.09-6.81-1.43-5.1-3.13-9.75S788.34,498,788.34,498a36.28,36.28,0,0,1,.63-5.55,9.27,9.27,0,0,0,.13-3.15c0-.36-.06-.65-.08-.85s0-.29,0-.29L789,488l2.43-4.53S811.08,490.25,809.91,493.1Z" transform="translate(-540.54 50)"/><path class="n" d="M846.76,549.45s-4.37-.09-6.71,1.95-13.61.44-13.12,0,.44-3.76.44-3.76c-6.62-9-1-12.7-1-12.7s-2.95-14.22-3.49-19.49c-.37-3.68-.84-13.62-1.08-19.24-.11-2.43-.17-4.11-.17-4.11L827,491l.7-.14,13-2.62s.36,2.43.6,4.42a19.92,19.92,0,0,1,.2,2.56c-.08,1,0,4,0,4l.45,9.12a10.55,10.55,0,0,0-.45,3c.09,1.17,1.79,17.8,1.79,17.8s2.95,9.93,1.94,10.64S846.76,549.45,846.76,549.45Z" transform="translate(-540.54 50)"/><path class="l" d="M825.11,311.55a10.92,10.92,0,0,0-.3,4.05,16.64,16.64,0,0,1-17.7-.33,60.7,60.7,0,0,0-.87-7.12S826.28,308.6,825.11,311.55Z" transform="translate(-540.54 50)"/><path class="m" d="M832.85,300.82a16.64,16.64,0,0,1-33.27.4v-.4a16.64,16.64,0,1,1,33.28,0Z" transform="translate(-540.54 50)"/><path class="l" d="M818.86,337.31c-6.42-2.49-14.68-10.73-12.62-14.58a8.84,8.84,0,0,0,.81-3.1l8.78,7.23,5.44,4.46,4.13-10.52c.34,2.2.7,3.89.7,3.89s-1.23,1.72-1.94,1.81S828.06,340.88,818.86,337.31Z" transform="translate(-540.54 50)"/><polygon class="n" points="301.03 419.24 293.7 542.48 284.13 543.11 259.35 471.64 263.41 386.8 264.27 368.88 275.29 377.93 280.73 382.38 284.98 371.56 292.89 378.45 301.03 419.24"/><path class="l" d="M809.91,493.1a14.37,14.37,0,0,0-.74,2.5,70.74,70.74,0,0,1-20.08-6.27l-.13-.07,0-.78v-.41l2.43-4.53S811.08,490.25,809.91,493.1Z" transform="translate(-540.54 50)"/><path class="l" d="M827.17,495.61a46.22,46.22,0,0,1-5.37.62c-.11-2.43-.17-4.11-.17-4.11L827,491Z" transform="translate(-540.54 50)"/><path class="l" d="M841.37,492.7c-3.46.9-8.8,1.91-13.57,1.28l-.07-3.08,13-2.62S841.11,490.69,841.37,492.7Z" transform="translate(-540.54 50)"/><path class="l" d="M827.71,494.54c-19.93,3.4-38.19-6.35-38.19-6.35l.18-3.31s.45-37.48-.81-40.35-2.23-17.43-1.52-19.65-2.59-35.76-2.59-35.76l-.53-13.62-19.59-8,8.75-18.24a65.39,65.39,0,0,0,3-7.88C778,336.68,785,332,785,332s7.24-4.65,10.11-4.47,6.61-4.12,6.61-4.12c2.77-7.06,5.28-3.88,5.28-3.88a6.45,6.45,0,0,1-.13,1c-1,7.75,15.72,32.26,16,32.7h0L824.48,392l1.61,49Z" transform="translate(-540.54 50)"/><path class="k" d="M827.17,494.54c-19.93,3.4-38.19-6.35-38.19-6.35l.18-3.31s.45-37.48-.81-40.35-2.23-17.44-1.51-19.68-2.61-35.75-2.61-35.75l-.54-13.62-19.58-8,8.75-18.25a65.9,65.9,0,0,0,3-7.87c1.53-4.73,8.61-9.38,8.61-9.38s7.25-4.65,10.11-4.48,6.63-4.11,6.63-4.11c2.77-7.06,5.83-3.88,5.83-3.88,0,.34-.29.48-.14,1,2.14,7.52,15.19,32.26,15.43,32.7h0L824,392l1.58,49Z" transform="translate(-540.54 50)"/><path class="l" d="M821.8,354.39c-2.14-.9-13.5-13.86-13.5-13.86v-2.95c-.41-1-2.87-.38-4.86.3L804.3,320l1,.81C807.39,328.28,821.57,354,821.8,354.39Z" transform="translate(-540.54 50)"/><path class="k" d="M822.34,353.32c-2.15-.9-13.5-13.86-13.5-13.86v-3c-.42-1-2.87-.38-4.87.3l.85-17.9,1,.8C807.93,327.21,822.1,352.88,822.34,353.32Z" transform="translate(-540.54 50)"/><path class="l" d="M789.52,418c.27,0,13.86-1.43,13.86-1.43s8.23,16.19,7.69,20.12-1.51,7.43-4.83,6.81-17.81.48-17.81.48Z" transform="translate(-540.54 50)"/><path class="k" d="M789,416.9c.27,0,13.87-1.42,13.87-1.42s8.22,16.21,7.69,20.1-1.52,7.42-4.83,6.8-17.82.49-17.82.49Z" transform="translate(-540.54 50)"/><path class="m" d="M799.22,409.33S811.7,416,812,418.08s-6.35-.9-7.78-1.26a19.7,19.7,0,0,0-2.87-.45l-9.53.26Z" transform="translate(-540.54 50)"/><circle class="l" cx="277.78" cy="403.91" r="1.31"/><circle class="o" cx="277.78" cy="403.38" r="1.31"/><circle class="l" cx="280.19" cy="460.74" r="1.31"/><circle class="o" cx="280.19" cy="460.2" r="1.31"/><circle class="l" cx="279.09" cy="432.32" r="1.31"/><circle class="o" cx="279.09" cy="431.79" r="1.31"/><path class="k" d="M849.89,416.1s.89,1.34,0,1.95.09,2.15.09,2.15-2.24,1.3-1.25,2.48.36,6.49.36,6.49l-2.69,4.46s.16,2.87.17,6.74c0,6-.35,14.52-2.32,18.39l.27,31.76s-9.4,3.43-17.27,2.38L826.09,442s1.7-28.89,2.32-34.43a57.26,57.26,0,0,0,.45-8.68s-.27-8.67-1.17-12.69c0,0-1-17.45-1.07-22.28,0-2.31.08-9,.22-15.45.15-7,.32-13.61.32-13.61l-1.77-14.05s1.77-.17,2.3.54a5,5,0,0,0,.78.59h0c3.07,2.07,13.89,8.44,13.89,8.44s6,2.39,7.43,5.8a50.69,50.69,0,0,0,3.12,6.8c.7,1,1.08,5.55,1.08,5.55s2.06,8.41,3.67,9.83,2.76,10.47,2.76,10.47L846.2,380s-1.25,18.6-1.51,19.32S849.89,416.1,849.89,416.1Z" transform="translate(-540.54 50)"/><path class="k" d="M850.43,416.1s.89,1.34,0,1.95.08,2.15.08,2.15-2.23,1.3-1.25,2.48.36,6.49.36,6.49L847,433.63s.16,2.87.17,6.74c0,6-.35,14.52-2.32,18.39l.27,31.76s-9.4,3.43-17.26,2.38L826.64,442s1.7-28.89,2.33-34.43a57.26,57.26,0,0,0,.45-8.68s-.27-8.67-1.17-12.69c0,0-1-17.45-1.07-22.28,0-2.31.08-9,.21-15.45.15-7,.32-13.61.32-13.61l-2.34-14.24s2.34,0,2.88.73a5,5,0,0,0,.78.59h0c3.06,2.07,13.89,8.44,13.89,8.44s6,2.39,7.43,5.8a53,53,0,0,0,3.13,6.8c.69,1,1.07,5.55,1.07,5.55s2.06,8.41,3.67,9.83S861,368.78,861,368.78L846.77,380s-1.25,18.6-1.52,19.32S850.43,416.1,850.43,416.1Z" transform="translate(-540.54 50)"/><path class="l" d="M833.4,338.93l1.29,3.75-6.77,6.8c.15-7,.32-13.61.32-13.61l-2.34-14.23s2.34,0,2.88.73a5,5,0,0,0,.78.59h0l5.75,16.58Z" transform="translate(-540.54 50)"/><path class="k" d="M832.85,337.86l1.29,3.74-6.76,6.8c.14-7,.32-13.61.32-13.61l-2.35-14.23s2.35,0,2.88.72a4.5,4.5,0,0,0,.78.6h0l5.78,16.59Z" transform="translate(-540.54 50)"/><path class="l" d="M832.85,300.82A16.77,16.77,0,0,1,832,306a.7.7,0,0,1-.52-.13c-.14-4.38-2.28-8.49-4.93-12a12.58,12.58,0,0,0-2.68-2.77,5.18,5.18,0,0,0-3.62-1c-1.46.2-2.75,1.19-4.22,1.32-1.95.16-3.69-1.19-5.62-1.25a5.51,5.51,0,0,0-4.13,1.91,11.35,11.35,0,0,0-2.21,4.1,24,24,0,0,0-1.23,7.08c0,1.36-.16,3.07-1.42,3.56a7.27,7.27,0,0,0-1.84-5.54l0,0v-.4a16.64,16.64,0,1,1,33.28,0Z" transform="translate(-540.54 50)"/><path class="p" d="M823.12,274.41a11.45,11.45,0,0,0-8.08-.64c-1.34.4-2.61,1.05-4,1.37-2.91.71-6.32-.05-8.82,1.65a10.55,10.55,0,0,0-3,4l-1.94,3.7a24,24,0,0,0-2.57,6.32,8.08,8.08,0,0,0,1.24,6.53c1,1.3,2.55,2.12,3.67,3.35a7.31,7.31,0,0,1,1.83,5.56c1.26-.49,1.39-2.2,1.42-3.56a24,24,0,0,1,1.23-7.08,11.27,11.27,0,0,1,2.21-4.1,5.49,5.49,0,0,1,4.13-1.92c1.94.07,3.69,1.41,5.62,1.25,1.45-.12,2.75-1.12,4.22-1.32a5.23,5.23,0,0,1,3.62,1,12.53,12.53,0,0,1,2.67,2.77c2.66,3.5,4.81,7.6,4.94,12,.55.39,1.34-.13,1.61-.75a16.42,16.42,0,0,1,.63-1.95,7.39,7.39,0,0,1,1.76-1.57c1.51-1.31,1.89-3.51,1.83-5.51s-.44-4-.06-6c.22-1.2.74-2.33,1-3.52a4.59,4.59,0,0,0-.35-3.55c-1-1.51-3-1.81-4.8-2-2-.17-3.84.05-5.13-1.66a19.61,19.61,0,0,0-2-2.5C825.72,276.12,823.12,274.51,823.12,274.41Z" transform="translate(-540.54 50)"/><path class="l" d="M770.27,376.93l-5.08-9.39L763.58,382s.9,6.43.72,7.42,3.66,9.84,3.66,9.84,12.71,22.63,17.9,23.79l17.5-12.52-4.65-5.91s-1.61-.62-2,0c0,0-8.64-14.84-9.53-15.91a5.43,5.43,0,0,1-.72-3.23s-1.34-1.43-.89-2.77-2.57-6-2.57-6l2.77-2.59Z" transform="translate(-540.54 50)"/><path class="k" d="M765.46,366.47l-1.34,1.07L762.51,382s.89,6.43.71,7.42,3.67,9.84,3.67,9.84,12.7,22.63,17.89,23.79l17.53-12.52-4.65-5.91s-1.61-.62-2,0c0,0-8.63-14.84-9.53-15.91s-.71-3.23-.71-3.23-1.34-1.43-.9-2.77-2.59-6-2.59-6l2.77-2.59Z" transform="translate(-540.54 50)"/><path class="l" d="M848.73,423.24c1,1.18.36,6.49.36,6.49l-2.69,4.44s.16,2.87.17,6.74l-4.51,1.41a2.69,2.69,0,0,1-3.36-1.77,2.6,2.6,0,0,1-.12-.88l.78-25.08,10.53,4c-.9.62.09,2.15.09,2.15S847.74,422.06,848.73,423.24Z" transform="translate(-540.54 50)"/><path class="k" d="M849.26,422.7c1,1.18.36,6.49.36,6.49L847,433.63s.16,2.87.17,6.74l-4.59,1.43a2.63,2.63,0,0,1-3.29-1.72,3.08,3.08,0,0,1-.12-.86l.79-25.17,10.52,4c-.9.62.08,2.15.08,2.15S848.28,421.52,849.26,422.7Z" transform="translate(-540.54 50)"/><path class="m" d="M852.75,410.74s-.71,4.56-2.5,4.83-2.59,7.38-4.38,7.13-.6-6.62-.54-7.85-1.94-6.35-.44-7.51,6.26,0,6.26,0Z" transform="translate(-540.54 50)"/><path class="l" d="M856.53,375.59l3.37-6.81a44,44,0,0,1,1.35,8c0,2.77,1.88,3,1.88,3s2,2.43,1,4.21-1.52,6.17-1.52,6.17.36,8.4-1.25,9.56-2,3.94-2,3.94-3,5.28-2.86,6.53-4.11,9.75-4.11,9.75,2.05-10.56-9.93-15.12c0,0-.09-3.57.8-4.56s2.29-1.46,1.42-6.39-.26-10.9-.26-12.09,2.69-8.62,2.69-8.62Z" transform="translate(-540.54 50)"/><path class="k" d="M858,367.81l3,1a44.29,44.29,0,0,1,1.34,8c0,2.77,1.88,3,1.88,3s2.06,2.43,1,4.21-1.52,6.17-1.52,6.17.36,8.4-1.25,9.56-1.94,3.94-1.94,3.94-3,5.28-2.86,6.53-4.12,9.75-4.12,9.75,2.06-10.56-9.93-15.12c0,0-.08-3.57.81-4.56s2.29-1.46,1.41-6.39-.25-10.9-.25-12.09,2.69-8.62,2.69-8.62Z" transform="translate(-540.54 50)"/><path class="l" d="M792.94,544.22s4.7-3,7.78-.81S792.94,544.22,792.94,544.22Z" transform="translate(-540.54 50)"/><path class="l" d="M829.44,535.1a9.49,9.49,0,0,1,7.65,3.22C840.58,542.08,829.44,535.1,829.44,535.1Z" transform="translate(-540.54 50)"/><g class="q"><path d="M835.52,300a7.44,7.44,0,0,0-1.77,1.57,17.72,17.72,0,0,0-.62,1.95c-.27.62-1.06,1.14-1.62.75-.13-4.38-2.28-8.49-4.93-12a12.27,12.27,0,0,0-2.67-2.76,5.14,5.14,0,0,0-3.63-1c-1.46.19-2.74,1.19-4.21,1.31-2,.16-3.69-1.18-5.62-1.25a5.52,5.52,0,0,0-4.13,1.92,11.27,11.27,0,0,0-2.21,4.1,24,24,0,0,0-1.23,7.08c0,1.35-.16,3-1.41,3.55a6.49,6.49,0,0,1,0,1.08c1.26-.48,1.39-2.2,1.42-3.56a23.73,23.73,0,0,1,1.24-7.08,11.2,11.2,0,0,1,2.21-4.1,5.52,5.52,0,0,1,4.12-1.92c1.94.07,3.69,1.42,5.62,1.25,1.46-.12,2.75-1.11,4.22-1.31a5.21,5.21,0,0,1,3.63,1,12.77,12.77,0,0,1,2.67,2.77c2.65,3.5,4.8,7.59,4.93,12,.55.4,1.34-.13,1.61-.75s.29-1.35.63-1.94a7,7,0,0,1,1.76-1.57c1.52-1.31,1.9-3.51,1.84-5.51v-.19A6.41,6.41,0,0,1,835.52,300Z" transform="translate(-540.54 50)"/><path d="M799.62,299.64c-1.11-1.23-2.64-2.05-3.66-3.36a7.08,7.08,0,0,1-1.42-4,7.48,7.48,0,0,0,1.42,5.05c1,1.3,2.55,2.12,3.66,3.35a7.29,7.29,0,0,1,1.84,4.34A7.26,7.26,0,0,0,799.62,299.64Z" transform="translate(-540.54 50)"/><path d="M838.31,285c-.28,1.19-.8,2.32-1,3.52a11.3,11.3,0,0,0-.15,2.46,10.78,10.78,0,0,1,.15-1.38c.23-1.2.75-2.33,1-3.53a5.89,5.89,0,0,0,.16-2A6,6,0,0,1,838.31,285Z" transform="translate(-540.54 50)"/></g><path class="r" d="M863.62,272A52,52,0,0,1,855,330" transform="translate(-540.54 50)"/><path class="s" d="M835.32,62.26" transform="translate(-540.54 50)"/><line class="s" x1="435.29" y1="240.44" x2="435.29" y2="239.03"/><line class="s" x1="511.83" y1="239.03" x2="511.83" y2="240.44"/><path class="t" d="M1285.67,424.11c-21.3,33.47-17.31,79.07-8,115,3.13,12,6.74,24.74,4.06,38.21-3.27,16.47-15.2,29.41-27.28,36.81-22,13.47-47.15,13.1-65.45-1-15.81-12.17-26.22-33.39-42.36-44.9-27-19.27-64-7.59-96.22,10.42-22.75,12.71-47.8,28.89-68.83,19.73-14.8-6.43-24-24.58-28.33-44.32-2.08-9.54-3.34-20-8.1-27.21-2.84-4.32-6.74-7.21-10.78-9.58-36.89-21.61-86.8-3.54-122.38-28-24-16.52-37.69-50.65-42.18-87.14s-.8-75.54,3.83-114c3.29-27.33,7.74-56.57,22.5-78.8,15.63-23.51,40.25-34,61.66-31.8s40,15.41,56,31.51c20,20.13,38.08,45.83,64,52.33,17.65,4.42,36.93-.7,55.7-3.6,31.33-4.84,62.24-3.45,92.92-1.63,29.38,1.74,58.93,3.9,86.3,13.94,19.37,7.12,34.23,21.92,52.31,31.55,11.78,6.27,25.07,7.07,36.05,15.44,13.52,10.31,25.22,29.33,19.81,53.38C1315.78,393.38,1297,406.35,1285.67,424.11Z" transform="translate(-540.54 50)"/><path class="u" d="M1241.94,286.35l-25.09-5.49S1222.77,306.56,1241.94,286.35Z" transform="translate(-540.54 50)"/><path class="u" d="M1251.81,266.61l-22.93-3.9S1243.28,284,1251.81,266.61Z" transform="translate(-540.54 50)"/><rect class="v" x="338.14" y="245.81" width="327.63" height="369.56"/><rect class="w" x="361.29" y="290.79" width="80.9" height="6.26"/><rect class="x" x="341.96" y="250.11" width="320" height="360.94"/><rect class="w" x="361.29" y="306.09" width="138.16" height="6.26"/><rect class="k" x="589.23" y="284.81" width="57.41" height="48.13"/><path class="w" d="M1186.87,235.09v47.57H1130V235.09h56.84m.58-.55h-58v48.68h58Z" transform="translate(-540.54 50)"/><rect class="k" x="531.24" y="284.81" width="57.41" height="48.13"/><path class="w" d="M1128.88,235.09v47.57H1072V235.09h56.84m.58-.55h-58v48.68h58Z" transform="translate(-540.54 50)"/><rect class="k" x="589.23" y="333.5" width="57.41" height="48.13"/><path class="w" d="M1186.87,283.78v47.57H1130V283.78h56.84m.58-.56h-58V331.9h58Z" transform="translate(-540.54 50)"/><rect class="k" x="531.24" y="333.5" width="57.41" height="48.13"/><path class="w" d="M1128.88,283.78v47.57H1072V283.78h56.84m.58-.56h-58V331.9h58Z" transform="translate(-540.54 50)"/><rect class="k" x="473.25" y="333.5" width="57.41" height="48.13"/><path class="w" d="M1070.92,283.78v47.57h-56.84V283.78h56.84m.57-.56h-58V331.9h58Z" transform="translate(-540.54 50)"/><rect class="k" x="415.27" y="333.5" width="57.41" height="48.13"/><path class="w" d="M1012.93,283.78v47.57H956.09V283.78h56.84m.58-.56h-58V331.9h58Z" transform="translate(-540.54 50)"/><rect class="k" x="357.28" y="333.5" width="57.41" height="48.13"/><path class="w" d="M955,283.78v47.57H898.1V283.78H955m.57-.56h-58V331.9h58Z" transform="translate(-540.54 50)"/><rect class="k" x="589.23" y="382.18" width="57.41" height="48.13"/><path class="w" d="M1186.87,332.46V380H1130V332.46h56.84m.58-.56h-58v48.69h58Z" transform="translate(-540.54 50)"/><rect class="k" x="531.24" y="382.18" width="57.41" height="48.13"/><path class="w" d="M1128.88,332.46V380H1072V332.46h56.84m.58-.56h-58v48.69h58Z" transform="translate(-540.54 50)"/><rect class="k" x="473.25" y="382.18" width="57.41" height="48.13"/><path class="w" d="M1070.92,332.46V380h-56.84V332.46h56.84m.57-.56h-58v48.69h58Z" transform="translate(-540.54 50)"/><rect class="k" x="415.27" y="382.18" width="57.41" height="48.13"/><path class="w" d="M1012.93,332.46V380H956.09V332.46h56.84m.58-.56h-58v48.69h58Z" transform="translate(-540.54 50)"/><rect class="k" x="357.28" y="382.18" width="57.41" height="48.13"/><path class="w" d="M955,332.46V380H898.1V332.46H955m.57-.56h-58v48.69h58Z" transform="translate(-540.54 50)"/><rect class="k" x="589.23" y="430.86" width="57.41" height="48.13"/><path class="w" d="M1186.87,381.14v47.57H1130V381.14h56.84m.58-.56h-58v48.69h58Z" transform="translate(-540.54 50)"/><rect class="k" x="531.24" y="430.86" width="57.41" height="48.13"/><path class="w" d="M1128.88,381.14v47.57H1072V381.14h56.84m.58-.56h-58v48.69h58Z" transform="translate(-540.54 50)"/><rect class="k" x="473.25" y="430.86" width="57.41" height="48.13"/><path class="w" d="M1070.92,381.14v47.57h-56.84V381.14h56.84m.57-.56h-58v48.69h58Z" transform="translate(-540.54 50)"/><rect class="k" x="415.27" y="430.86" width="57.41" height="48.13"/><path class="w" d="M1012.93,381.14v47.57H956.09V381.14h56.84m.58-.56h-58v48.69h58Z" transform="translate(-540.54 50)"/><rect class="k" x="357.28" y="430.86" width="57.41" height="48.13"/><path class="w" d="M955,381.14v47.57H898.1V381.14H955m.57-.56h-58v48.69h58Z" transform="translate(-540.54 50)"/><rect class="k" x="589.23" y="479.54" width="57.41" height="48.13"/><path class="w" d="M1186.87,429.83v47.56H1130V429.83h56.84m.58-.56h-58V478h58Z" transform="translate(-540.54 50)"/><rect class="k" x="531.24" y="479.54" width="57.41" height="48.13"/><path class="w" d="M1128.88,429.83v47.56H1072V429.83h56.84m.58-.56h-58V478h58Z" transform="translate(-540.54 50)"/><rect class="k" x="473.25" y="479.54" width="57.41" height="48.13"/><path class="w" d="M1070.92,429.83v47.56h-56.84V429.83h56.84m.57-.56h-58V478h58Z" transform="translate(-540.54 50)"/><rect class="k" x="415.27" y="479.54" width="57.41" height="48.13"/><path class="w" d="M1012.93,429.83v47.56H956.09V429.83h56.84m.58-.56h-58V478h58Z" transform="translate(-540.54 50)"/><rect class="k" x="357.28" y="479.54" width="57.41" height="48.13"/><path class="w" d="M955,429.83v47.56H898.1V429.83H955m.57-.56h-58V478h58Z" transform="translate(-540.54 50)"/><rect class="k" x="589.23" y="528.23" width="57.41" height="48.13"/><path class="w" d="M1186.87,478.5v47.57H1130V478.5h56.84m.58-.55h-58v48.68h58Z" transform="translate(-540.54 50)"/><rect class="k" x="531.24" y="528.23" width="57.41" height="48.13"/><path class="w" d="M1128.88,478.5v47.57H1072V478.5h56.84m.58-.55h-58v48.68h58Z" transform="translate(-540.54 50)"/><rect class="k" x="473.25" y="528.23" width="57.41" height="48.13"/><path class="w" d="M1070.92,478.5v47.57h-56.84V478.5h56.84m.57-.55h-58v48.68h58Z" transform="translate(-540.54 50)"/><rect class="k" x="415.27" y="528.23" width="57.41" height="48.13"/><path class="w" d="M1012.93,478.5v47.57H956.09V478.5h56.84m.58-.55h-58v48.68h58Z" transform="translate(-540.54 50)"/><rect class="k" x="357.28" y="528.23" width="57.41" height="48.13"/><path class="w" d="M955,478.5v47.57H898.1V478.5H955m.57-.55h-58v48.68h58Z" transform="translate(-540.54 50)"/><path class="u" d="M1018.41,570.47c1.64-1.21,3.19-2.64,3.66-4.38a3.68,3.68,0,0,0-2.56-4.46c-2.34-.71-4.85.56-6.76,1.88s-4.08,2.79-6.57,2.52a7,7,0,0,0,3.09-7.43,2.82,2.82,0,0,0-.86-1.5c-1.3-1.12-3.67-.63-5.23.24-5,2.79-6.35,8.11-6.38,12.93-.5-1.74-.08-3.55-.09-5.33a5,5,0,0,0-2.52-4.71,9.25,9.25,0,0,0-3.85-.72c-2.23-.07-4.72.11-6.24,1.4-1.9,1.61-1.4,4.31.25,6.08s4.15,2.88,6.45,4.1a13.17,13.17,0,0,1,4.6,3.49,2.87,2.87,0,0,1,.34.62h14A40.49,40.49,0,0,0,1018.41,570.47Z" transform="translate(-540.54 50)"/><ellipse class="y" cx="364.86" cy="340.82" rx="3.27" ry="3.18"/><ellipse class="z" cx="373.03" cy="340.82" rx="3.27" ry="3.18"/><ellipse class="u" cx="480.42" cy="387.95" rx="3.27" ry="3.18"/><ellipse class="u" cx="488.61" cy="387.95" rx="3.27" ry="3.18"/><ellipse class="u" cx="655.42" cy="479.04" rx="3.27" ry="3.18"/><ellipse class="u" cx="657.05" cy="475.33" rx="3.27" ry="3.18"/><ellipse class="u" cx="658.69" cy="472.16" rx="3.27" ry="3.18"/><ellipse class="u" cx="597.63" cy="340.82" rx="3.27" ry="3.18"/><ellipse class="u" cx="605.81" cy="340.82" rx="3.27" ry="3.18"/><ellipse class="u" cx="613.99" cy="340.82" rx="3.27" ry="3.18"/><ellipse class="u" cx="622.17" cy="340.82" rx="3.27" ry="3.18"/><ellipse class="u" cx="597.63" cy="439.32" rx="3.27" ry="3.18"/><ellipse class="u" cx="605.81" cy="439.32" rx="3.27" ry="3.18"/><ellipse class="u" cx="613.99" cy="439.32" rx="3.27" ry="3.18"/><ellipse class="u" cx="622.17" cy="439.32" rx="3.27" ry="3.18"/><ellipse class="z" cx="422.64" cy="387.95" rx="3.27" ry="3.18"/><ellipse class="y" cx="364.86" cy="436.14" rx="3.27" ry="3.18"/><path class="aa" d="M1193.13,437c3.59,2.05,9.19,3.39,16.28-1l-.07,9.79c.51,6.7,9.06,31.19,9.06,31.19l6,20.14a153.16,153.16,0,0,1,6.63,43.8c0,4.91.47,10,1.92,13.79,3.21,8.43-1.26,19.29-3.2,23.33q-4.9,1.61-10,2.72a7,7,0,0,0-.89.27l0-.06s-9.05,3.49-13.07,3c-3-.36-4.87,3.27-2.52,5.94a18.68,18.68,0,0,1-6,.77c-4-.48-6,6.24,1.51,8.16s50.29,0,50.29,0a5.84,5.84,0,0,0,3.22-6.51l5.33-.21s7.55-3.35,0-12.48l-.4.29-1.61-4.61v-6.23s9.55-44.62,6.54-49.9-4.53-32.15-4.53-32.15l1-29.26c2.72-5.47,4.12-14,4.82-20.74a42.26,42.26,0,0,0,1.93-9.83c.12-1.57.22-3.22.28-4.94a32,32,0,0,0-1.87-11c2.87-4,7.54-10.22,11.39-13.89a14,14,0,0,0,4.53-12.48l-2.52-16.31-6-27.83c.76-7.72-.9-12.17-2.73-14.68.43-2.49.84-5,1.15-7.49a93.25,93.25,0,0,0-1.77-32.62c-.87-3.73-2.06-7.56-4.75-10.39-3-3.2-8-5.15-9.14-9.34a25.38,25.38,0,0,0-.7-3.16c-1.1-2.75-4.59-3.74-7.65-4.1-5.44-.64-13.31-1.12-18.54.95-3.65,1.45-8.68,5.44-10.68,9.73a8.06,8.06,0,0,0-1.2,6,8.43,8.43,0,0,0,.87,2,18,18,0,0,0-1.17,6.41,18.75,18.75,0,0,0,12.3,17.36c.12.37.23.73.32,1.09a17.91,17.91,0,0,1,.49,2.61c-.09,1.68-.2,3.4-.28,5.1-.06.24-.12.47-.19.69a131.17,131.17,0,0,0-12.63,6.26c3,4.32-.5,22.55-.5,22.55-7.55,4.32-15.09,15.36-7,26.87s3.52,24,3.52,24l-1.26,18.76h0v0l-.25,3.75h.09l-.09,1.43.22,0v1.52c-3.54,1.27-8.7,3.81-11.78,8.51a30.06,30.06,0,0,1-5.26,6.28,3.69,3.69,0,0,0-.4,5.31A4.33,4.33,0,0,0,1193.13,437Zm60.73-49.85a17.37,17.37,0,0,1,1.78-9.44c1.19,0,2.37,0,3.56,0,.12.81.26,1.58.43,2.28,1,4.23-3.06,6.26-5.78,7.12Z" transform="translate(-540.54 50)"/><path class="ab" d="M1254.85,573.13l1.94,5.64-6.32,6.14-20.81,4.7-15-1.41,1-5.17h0a6.32,6.32,0,0,1,4.76-4.56c6.17-1.4,17.93-4.62,20.4-9.07Z" transform="translate(-540.54 50)"/><path class="l" d="M1254.85,573.13l1.94,5.64-6.32,6.14-20.81,4.7-15-1.41,1-5.17h0a6.32,6.32,0,0,1,4.76-4.56c6.17-1.4,17.93-4.62,20.4-9.07Z" transform="translate(-540.54 50)"/><path class="ac" d="M1219.52,586.77l2.91-3.76-2.91-4.36s-8.71,3.41-12.58,3-5.8,6.13,1.45,8,48.4,0,48.4,0,7.25-3.29,0-12.22l-6.32,4.7s-10.65,5.64-16,4.7Z" transform="translate(-540.54 50)"/><path class="ab" d="M1206.45,594.75l15,1.41,20.8-4.7,6.32-6.14-.51-1.49-.72-2.1-.73-2-14-3.76a8.61,8.61,0,0,1-2.87,2.79c-4.56,3-12.75,5.21-17.55,6.31a3.86,3.86,0,0,0-.58.17,6.29,6.29,0,0,0-4.17,4.38Z" transform="translate(-540.54 50)"/><path class="l" d="M1206.45,594.75l15,1.41,20.8-4.7,6.32-6.14-.51-1.49-5.78,4.31s-10.64,5.64-16,4.71h-15l2.91-3.76-2.61-3.91a6.3,6.3,0,0,0-4.17,4.39Z" transform="translate(-540.54 50)"/><path class="ac" d="M1211.29,593.35l2.91-3.76-2.91-4.36s-8.71,3.42-12.58,2.95-5.8,6.13,1.46,8,48.39,0,48.39,0,7.25-3.29,0-12.22l-6.32,4.7s-10.64,5.64-16,4.7Z" transform="translate(-540.54 50)"/><path class="ab" d="M1223.39,320.68s23.23,2.35,19.84-7.05a16.5,16.5,0,0,1-.71-8.3,22.58,22.58,0,0,1,4.1-9.56l-21.78,3.29a26.18,26.18,0,0,1,3,6.8C1230.39,315.82,1223.39,320.68,1223.39,320.68Z" transform="translate(-540.54 50)"/><path class="ad" d="M1263.07,427.87s-.48,20.21-5.32,30.08l-1,28.68s1.45,26.33,4.36,31.5-6.32,48.89-6.32,48.89v7.53s-15.5,5.63-19.84-.95l4.36-55.94-1.94-77.57Z" transform="translate(-540.54 50)"/><path class="l" d="M1263.07,427.87s-.48,20.21-5.32,30.08l-1,28.68s1.45,26.33,4.36,31.5-6.32,48.89-6.32,48.89v7.53s-15.5,5.63-19.84-.95l4.36-55.94-1.94-77.57Z" transform="translate(-540.54 50)"/><path class="y" d="M1272.75,363l2.91,7.52,2.42,16a13.9,13.9,0,0,1-4.36,12.22c-5.81,5.64-13.55,17.39-13.55,17.39L1251,389.34s9.19-1.41,7.75-7.52-1-17.44-1-17.44Z" transform="translate(-540.54 50)"/><path class="ae" d="M1272.75,363l2.91,7.52,2.42,16a13.9,13.9,0,0,1-4.36,12.22c-5.81,5.64-13.55,17.39-13.55,17.39L1251,389.34s9.19-1.41,7.75-7.52-1-17.44-1-17.44Z" transform="translate(-540.54 50)"/><path class="l" d="M1229.74,578.72c6.21,9.49,15.87,4.11,17.58,3l-.7-2.07-14-3.76A8.64,8.64,0,0,1,1229.74,578.72Z" transform="translate(-540.54 50)"/><path class="ad" d="M1210.33,446.2c.48,6.58,8.71,30.56,8.71,30.56l5.8,19.73a152.69,152.69,0,0,1,6.38,42.91c0,4.82.46,9.78,1.86,13.51,3.87,10.35-3.87,24.45-3.87,24.45,6.77,11.75,18.37,3.76,18.37,3.76V573.6s9.19-40.9,6.78-48.89-3.39-29.62-3.39-29.62v-39A43.79,43.79,0,0,0,1264.25,428c.11-1.54.21-3.16.27-4.84.39-10.6-7.07-23-10-27.47-.7-1.07-1.15-1.67-1.15-1.67l-42.73,16.46-.1,0v5.16Z" transform="translate(-540.54 50)"/><path class="l" d="M1224.84,299.06a26.12,26.12,0,0,1,3,6.79,19.5,19.5,0,0,0,14.72-.52,22.58,22.58,0,0,1,4.1-9.56Z" transform="translate(-540.54 50)"/><ellipse class="ab" cx="693.98" cy="337.77" rx="18.87" ry="18.33"/><path class="l" d="M1210.33,415.65l.21,0c20.29,4.05,45.76-16.5,45.76-16.5a24.38,24.38,0,0,1-1.76-3.5c-.7-1.07-1.15-1.67-1.15-1.67l-42.73,16.47-.11,1.64Z" transform="translate(-540.54 50)"/><path class="y" d="M1215.65,320.21s27.1-16,35.81-9.41l12.1,15.06s7.75,2.35,6.32,17.4l5.78,27.25-17.42,4.24s-10.16,9.4-1.94,23c0,0-25.65,20.68-46,16.45l1.45-22.09s4.36-12.23-3.39-23.51-.48-22.09,6.78-26.33C1215.17,342.31,1218.55,324.44,1215.65,320.21Z" transform="translate(-540.54 50)"/><path class="ab" d="M1214.2,416.11s-10.16,1.88-15,9.41a29.19,29.19,0,0,1-5.07,6.13,3.66,3.66,0,0,0-.26,5.28,3.44,3.44,0,0,0,.84.67c3.84,2.23,10.1,3.62,18-2.69C1226.3,424.11,1214.2,416.11,1214.2,416.11Z" transform="translate(-540.54 50)"/><path class="l" d="M1229.2,329.14s9.68-.94,12.1,23.51,6.32,30.09,6.32,30.09,2.41,12.69-3.39,20.21-16.94,23.51-16.94,23.51-12.1,3.29-14.52-8.47l15-27.26s2.42-9.41-3.39-16S1214.2,324.44,1229.2,329.14Z" transform="translate(-540.54 50)"/><path class="y" d="M1228.21,327.73s9.68-.94,12.1,23.51,6.32,30.08,6.32,30.08,2.42,12.7-3.39,20.22S1226.3,425,1226.3,425s-12.1,3.3-14.51-8.46l15-27.26s2.42-9.41-3.39-16S1213.23,323,1228.21,327.73Z" transform="translate(-540.54 50)"/><path class="l" d="M1220.24,345.36s-1,14.56,3.38,22.57,4.36,18.33,0,24" transform="translate(-540.54 50)"/><path class="l" d="M1217.83,327.5s3.87-3.76,15-4.24,16-3.76,16-3.76" transform="translate(-540.54 50)"/><path class="l" d="M1244.74,264.08c2.94.35,6.32,1.33,7.37,4a27.14,27.14,0,0,1,.67,3.1c1.09,4.1,5.85,6,8.79,9.16,2.59,2.79,3.73,6.52,4.59,10.17a92.76,92.76,0,0,1,1.72,31.94c-.94,7.81-2.87,15.47-3.41,23.31s.45,16.07,4.86,22.65c1.89,2.83,4.39,5.31,5.74,8.43-2.78,2.18-6.61,2.49-10.18,2.61q-6.24.21-12.49,0a13.67,13.67,0,0,1-6.35-1.28,9.66,9.66,0,0,1-3.33-3.48c-2.38-3.9-3-8.64-2.87-13.19s.85-9.08.93-13.64c0-2.48-.15-5.12-1.62-7.15-1.06-1.47-2.68-2.46-4.06-3.64-5.16-4.47-6.95-11.62-7.13-18.34s1-13.45.39-20.15c-.23-2.62-1.24-5.78-3.89-6.28a14.12,14.12,0,0,1-2.53-.32c-2.13-.79-1.92-3.71-2.53-5.85-.69-2.4-2.79-4.25-3.39-6.69-1.39-5.69,6.06-12.48,11-14.46S1239.51,263.45,1244.74,264.08Z" transform="translate(-540.54 50)"/><path class="af" d="M1245.23,263.14c2.94.35,6.31,1.33,7.36,4a26.52,26.52,0,0,1,.67,3.09c1.1,4.11,5.86,6,8.79,9.16,2.59,2.79,3.73,6.52,4.59,10.17a93,93,0,0,1,1.73,31.94c-.95,7.81-2.87,15.48-3.41,23.31s.44,16.07,4.85,22.65c1.89,2.83,4.4,5.32,5.74,8.43-2.77,2.19-6.6,2.5-10.18,2.61q-6.24.21-12.49,0a13.61,13.61,0,0,1-6.34-1.28,9.55,9.55,0,0,1-3.33-3.47c-2.39-3.91-3-8.65-2.87-13.2s.84-9.08.93-13.64c0-2.48-.16-5.12-1.63-7.15-1.06-1.47-2.68-2.45-4.05-3.64-5.17-4.46-7-11.62-7.13-18.34s1-13.45.38-20.15c-.23-2.62-1.24-5.77-3.89-6.28a14.11,14.11,0,0,1-2.53-.31c-2.13-.8-1.92-3.72-2.53-5.85-.68-2.4-2.79-4.25-3.38-6.7-1.4-5.69,6-12.48,10.94-14.46S1240,262.51,1245.23,263.14Z" transform="translate(-540.54 50)"/><g class="ag"><path class="ah" d="M985.68,97.4C979.89,60.86,967,57.67,957,39.22c-9-16.77-16.35-44.22,9.2-63.84,39.69-30.51,88.36.71,88.36.71s77.13,41.85,90.6,44,46.43,23.41,87.62-2.13,76.37-23.41,87.61-4.25-14.23,74.49-20.22,85.84,3,46.82,12.73,61,40.43,58.17-25.46,56.75-263.58.71-263.58.71-71-1.26-58.41-66.69C975.94,96.69,987.92,111.59,985.68,97.4Z" transform="translate(-540.54 50)"/><ellipse class="ai" cx="470.6" cy="128.24" rx="14.98" ry="14.19"/><ellipse class="ai" cx="445.51" cy="145.62" rx="10.11" ry="9.58"/><ellipse class="ai" cx="447.01" cy="123.63" rx="5.62" ry="5.32"/><ellipse class="ai" cx="779.11" cy="224.02" rx="14.98" ry="14.19"/><ellipse class="ai" cx="419.3" cy="56.24" rx="5.62" ry="5.32"/><ellipse class="aj" cx="512.9" cy="222.95" rx="26.58" ry="25.18"/><ellipse class="aj" cx="688.5" cy="243.17" rx="17.97" ry="17.03"/><ellipse class="aj" cx="757.39" cy="155.2" rx="9.73" ry="9.22"/><ellipse class="aj" cx="684.76" cy="72.2" rx="19.47" ry="18.45"/><ellipse class="aj" cx="506.16" cy="22.89" rx="9.36" ry="8.87"/><ellipse class="aj" cx="476.21" cy="199.54" rx="9.36" ry="8.87"/><ellipse class="ai" cx="777.98" cy="96.67" rx="9.36" ry="8.87"/><ellipse class="ai" cx="763.01" cy="247.07" rx="10.11" ry="9.58"/><ellipse class="ai" cx="785.47" cy="252.04" rx="5.62" ry="5.32"/></g><path class="ak" d="M1201.13,101c16.77-2.94,36.26-2.43,57.28,0-4.26-24.18-4.46-47.86,0-71h-57.28A200,200,0,0,0,1201.13,101Z" transform="translate(-540.54 50)"/><rect class="o" x="677.69" y="76" width="19.92" height="6.54"/><path class="l" d="M1156.55,241.15c16.77-2.94,36.26-2.43,57.27,0-4.26-24.18-4.45-47.86,0-71h-57.27A200,200,0,0,0,1156.55,241.15Z" transform="translate(-540.54 50)"/><path class="ak" d="M1154,237.84c16.77-2.94,36.26-2.43,57.28,0-4.26-24.18-4.46-47.86,0-71H1154A200,200,0,0,0,1154,237.84Z" transform="translate(-540.54 50)"/><rect class="o" x="630.52" y="212.82" width="19.92" height="6.54"/><path class="al" d="M1104.75,122S1127,59.16,1176.46,58.6" transform="translate(-540.54 50)"/><path class="o" d="M1180.9,58.72a22.38,22.38,0,0,0-6.37,3.35l1.35-3.47-1.19-3.52A22.46,22.46,0,0,0,1180.9,58.72Z" transform="translate(-540.54 50)"/><path class="al" d="M1106.59,145.9s-2,50.56,26.88,57.45" transform="translate(-540.54 50)"/><path class="o" d="M1137.86,204a22.05,22.05,0,0,0-6.77,2.43l1.81-3.25-.68-3.65A22.4,22.4,0,0,0,1137.86,204Z" transform="translate(-540.54 50)"/><path class="al" d="M1112.48,129.35s156.2-26,183,6.17" transform="translate(-540.54 50)"/><path class="o" d="M1297.88,139.28a22.5,22.5,0,0,0-6.39-3.31l3.61-.88,2.21-3A22.5,22.5,0,0,0,1297.88,139.28Z" transform="translate(-540.54 50)"/><path class="l" d="M1362.35,210.84c-14.85,8.31-29.65,21-44.41,36.16-12-21.44-26.76-39.93-44.81-55l44.41-36.16A199.91,199.91,0,0,1,1362.35,210.84Z" transform="translate(-540.54 50)"/><path class="ak" d="M1363.09,207.9c-14.86,8.31-29.65,21-44.42,36.16-12-21.44-26.75-39.93-44.81-55l44.42-36.16A200.09,200.09,0,0,1,1363.09,207.9Z" transform="translate(-540.54 50)"/><rect class="o" x="1286.85" y="166.07" width="19.92" height="6.54" transform="translate(-356.32 906.77) rotate(-39.15)"/><rect class="am" x="1294.43" y="185.92" width="35.32" height="4.78" transform="translate(-364.86 920.67) rotate(-39.15)"/><g class="q"><path d="M1331.94,193.13a2.89,2.89,0,0,0-.56-1.23,2.06,2.06,0,0,0-.81-.37c-1.57-.5-3.19-1.42-3.71-3a1.79,1.79,0,0,1-.09-1,1.58,1.58,0,0,1,.2-.44,2,2,0,0,0-1.27,1.22,1.79,1.79,0,0,0,.08,1c.53,1.56,2.15,2.48,3.72,3a2,2,0,0,1,.8.37,2.67,2.67,0,0,1,.56,1.23c.15.44.48.9.93.88s.68-.44,1-.79C1332.36,194,1332.07,193.53,1331.94,193.13Z" transform="translate(-540.54 50)"/><path d="M1338.82,197.61c-1.89.17-2.64-1.55-2.94-3.14a3.27,3.27,0,0,0-.37-1.21,1,1,0,0,0-1.1-.49c-.35.11-.58.46-.82.74a1.11,1.11,0,0,1,.84.51,3.5,3.5,0,0,1,.39,1.21c.29,1.59,1,3.31,2.94,3.14a3,3,0,0,0,1.94-1A2.69,2.69,0,0,1,1338.82,197.61Z" transform="translate(-540.54 50)"/></g><path class="ak" d="M1114.09,166.81c-16.77-2.94-36.26-2.43-57.28,0,4.27-24.17,4.47-47.86,0-71h57.28A200,200,0,0,1,1114.09,166.81Z" transform="translate(-540.54 50)"/><rect class="o" x="536.54" y="141.79" width="19.92" height="6.54"/><rect class="am" x="622.89" y="235.44" width="35.32" height="4.78"/><rect class="am" x="622.89" y="245.38" width="35.32" height="4.78"/><rect class="am" x="669.97" y="91.98" width="35.32" height="4.78"/><rect class="am" x="669.97" y="101.91" width="35.32" height="4.78"/><rect class="am" x="528.71" y="158.93" width="35.32" height="4.78"/></g></svg>